<svg width="544" height="358" viewBox="0 0 544 358" fill="none" xmlns="http://www.w3.org/2000/svg">
<g clip-path="url(#clip0_613_61)">
<path opacity="0.1" d="M155.005 41.737C159.042 17.6481 179.893 0.00158691 204.317 0.00158691H494C521.614 0.00158691 544 22.3873 544 50.0016V308.002C544 335.616 521.614 358.002 494 358.002H161.077C130.162 358.002 106.655 330.227 111.765 299.737L155.005 41.737Z" fill="#2D9CDB"/>
<ellipse cx="484.674" cy="306.032" rx="30.9248" ry="18.2737" transform="rotate(20.7184 484.674 306.032)" stroke="white" stroke-width="1.5"/>
<path d="M210.726 247.712C150.191 259.919 135.567 195.795 176.958 121.691C270.954 -18.8767 419.406 22.8654 442.045 50.6612C464.685 78.457 446.491 111.798 359.252 126.395C272.014 140.991 286.393 232.454 210.726 247.712Z" stroke="white" stroke-width="1.5"/>
</g>
<defs>
<clipPath id="clip0_613_61">
<rect width="544" height="358" fill="white"/>
</clipPath>
</defs>
</svg>
