<svg width="50" height="50" viewBox="0 0 50 50" fill="none" xmlns="http://www.w3.org/2000/svg">
<ellipse opacity="0.1" cx="25" cy="25.102" rx="25" ry="24.538" fill="#212353"/>
<path d="M25.0018 20.6981C22.7316 20.6981 20.9005 22.4359 20.9005 24.5903C20.9005 26.7448 22.7316 28.4826 25.0018 28.4826C27.2719 28.4826 29.1031 26.7448 29.1031 24.5903C29.1031 22.4359 27.2719 20.6981 25.0018 20.6981ZM25.0018 27.1208C23.5347 27.1208 22.3354 25.986 22.3354 24.5903C22.3354 23.1947 23.5312 22.0599 25.0018 22.0599C26.4724 22.0599 27.6682 23.1947 27.6682 24.5903C27.6682 25.986 26.4688 27.1208 25.0018 27.1208ZM30.2274 20.5389C30.2274 21.0436 29.7991 21.4467 29.2708 21.4467C28.739 21.4467 28.3142 21.0402 28.3142 20.5389C28.3142 20.0375 28.7426 19.631 29.2708 19.631C29.7991 19.631 30.2274 20.0375 30.2274 20.5389ZM32.9438 21.4603C32.8831 20.2441 32.5904 19.1669 31.6516 18.2794C30.7165 17.3919 29.5814 17.1141 28.2999 17.0531C26.9793 16.982 23.0207 16.982 21.7001 17.0531C20.4222 17.1107 19.2871 17.3885 18.3484 18.276C17.4096 19.1635 17.1205 20.2408 17.0562 21.4569C16.9813 22.7103 16.9813 26.467 17.0562 27.7204C17.1169 28.9365 17.4096 30.0137 18.3484 30.9013C19.2871 31.7888 20.4186 32.0666 21.7001 32.1276C23.0207 32.1987 26.9793 32.1987 28.2999 32.1276C29.5814 32.07 30.7165 31.7922 31.6516 30.9013C32.5868 30.0137 32.8795 28.9365 32.9438 27.7204C33.0187 26.467 33.0187 22.7136 32.9438 21.4603ZM31.2376 29.0652C30.9592 29.7292 30.4202 30.2407 29.717 30.5083C28.664 30.9047 26.1654 30.8132 25.0018 30.8132C23.8381 30.8132 21.336 30.9013 20.2866 30.5083C19.5869 30.2441 19.048 29.7326 18.766 29.0652C18.3484 28.0659 18.4447 25.6947 18.4447 24.5903C18.4447 23.486 18.3519 21.1114 18.766 20.1154C19.0444 19.4515 19.5834 18.94 20.2866 18.6723C21.3395 18.276 23.8381 18.3675 25.0018 18.3675C26.1654 18.3675 28.6676 18.2794 29.717 18.6723C30.4166 18.9366 30.9556 19.4481 31.2376 20.1154C31.6552 21.1147 31.5588 23.486 31.5588 24.5903C31.5588 25.6947 31.6552 28.0693 31.2376 29.0652Z" fill="white"/>
</svg>
