<svg width="544" height="358" viewBox="0 0 544 358" fill="none" xmlns="http://www.w3.org/2000/svg">
<g clip-path="url(#clip0_612_662)">
<path opacity="0.1" d="M155.005 41.7354C159.042 17.6465 179.893 0 204.317 0H494C521.614 0 544 22.3858 544 50V308C544 335.614 521.614 358 494 358H161.077C130.162 358 106.655 330.225 111.765 299.735L155.005 41.7354Z" fill="#9C69E2"/>
<path d="M317.373 259.341C289.327 227.53 322.443 196.813 380.728 195.985C496.606 203.621 522.755 306.245 513.997 329.254C505.24 352.263 479.163 352.891 440.526 306.019C401.889 259.146 352.43 299.104 317.373 259.341Z" stroke="white" stroke-width="1.5"/>
</g>
<defs>
<clipPath id="clip0_612_662">
<rect width="544" height="358" fill="white"/>
</clipPath>
</defs>
</svg>
